<svg width="512" height="512" viewBox="0 0 512 512" fill="none" xmlns="http://www.w3.org/2000/svg">
  <!-- Background gradient -->
  <rect width="512" height="512" rx="115" fill="url(#gradient)"/>
  
  <!-- Wave pattern -->
  <path d="M0 350 Q64 320, 128 350 T256 350 T384 350 T512 350 L512 512 L0 512 Z" fill="rgba(255,255,255,0.15)"/>
  <path d="M0 380 Q64 350, 128 380 T256 380 T384 380 T512 380 L512 512 L0 512 Z" fill="rgba(255,255,255,0.1)"/>
  
  <!-- Moon and Sun icon -->
  <circle cx="256" cy="200" r="80" fill="#FDB813" opacity="0.9"/>
  <circle cx="280" cy="180" r="70" fill="white" opacity="0.95"/>
  
  <!-- Water level indicator -->
  <rect x="180" y="320" width="152" height="12" rx="6" fill="white" opacity="0.8"/>
  <rect x="180" y="340" width="152" height="8" rx="4" fill="white" opacity="0.6"/>
  <rect x="180" y="354" width="152" height="6" rx="3" fill="white" opacity="0.4"/>
  
  <!-- Gradient definition -->
  <defs>
    <linearGradient id="gradient" x1="0%" y1="0%" x2="0%" y2="100%">
      <stop offset="0%" style="stop-color:#0EA5E9;stop-opacity:1" />
      <stop offset="100%" style="stop-color:#0284C7;stop-opacity:1" />
    </linearGradient>
  </defs>
</svg>
